<?xml version="1.0" encoding="UTF-8"?>
<svg id="Camada_2" data-name="Camada 2" xmlns="http://www.w3.org/2000/svg" viewBox="0 0 711.305 396.674">
  <defs>
    <style>
      .cls-1 {
        fill: none;
        stroke: #111111;
        stroke-miterlimit: 10;
        stroke-width: 5px;
      }

      .cls-2 {
        fill: #111111;
      }
    </style>
  </defs>
  <g id="Camada_1-2" data-name="Camada 1">
    <g id="Camada_2-2" data-name="Camada 2">
      <g id="Camada_1-2" data-name="Camada 1-2">
        <path class="cls-2" d="M293.109,33.544V8.646c0-4.768-3.879-8.646-8.646-8.646h-136.714c-4.688,0-8.567,3.813-8.646,8.501l-.42,25.003c-.009.486.025.98.101,1.471.684,4.418,6.674,43.617,6.674,59.068,0,14.612-5.397,35.208-6.479,39.188-.201.74-.304,1.504-.304,2.271v80.459c0,4.768,3.879,8.646,8.646,8.646h26.962c1.961,0,5.834-.798,13.081-2.329,9.943-2.1,23.562-4.976,31.788-4.976,8.044,0,20.662,2.798,29.875,4.842,7.092,1.573,11.212,2.462,13.43,2.462h22.006c4.768,0,8.646-3.879,8.646-8.646v-81.578c0-.43-.03-.843-.093-1.259-.464-3.129-2.777-20.271-2.777-50.56,0-30.021,2.288-44.889,2.748-47.569.082-.485.122-.959.122-1.451h0ZM147.749,5.999h136.714c1.459,0,2.646,1.187,2.646,2.646v20.571h-34.174c-2.374,0-5.858.968-10.682,2.308-7.194,1.999-17.049,4.736-26.102,4.736-13.018,0-31.864-5.555-35.509-6.668-.814-.249-1.662-.375-2.52-.375h-33.368l.346-20.615c.023-1.435,1.211-2.602,2.646-2.602h.003ZM287.109,215.961c0,1.459-1.188,2.646-2.646,2.646h-22.006c-1.669,0-6.75-1.127-12.131-2.32-10.012-2.22-22.473-4.984-31.174-4.984-8.854,0-22.825,2.951-33.028,5.105-5.12,1.081-10.415,2.199-11.841,2.199h-26.962c-1.459,0-2.646-1.187-2.646-2.646v-80.459c0-.235.031-.469.093-.696,1.117-4.11,6.689-25.388,6.689-40.763,0-14.96-5.358-50.911-6.567-58.826h33.234c.262,0,.52.038.766.113,5.322,1.626,23.74,6.93,37.263,6.93,9.871,0,20.18-2.864,27.707-4.955,3.867-1.074,7.521-2.089,9.076-2.089h33.939c-.729,4.786-2.635,19.924-2.635,47.348,0,30.709,2.367,48.238,2.843,51.444.019.125.027.248.027.375v81.578h0Z"/>
        <rect class="cls-1" x="2.5" y="298.304" width="438.261" height="95.87" rx="41.283" ry="41.283"/>
        <circle class="cls-1" cx="54.935" cy="346.238" r="20.152"/>
        <circle class="cls-1" cx="382.796" cy="346.238" r="20.152"/>
        <rect class="cls-1" x="470.892" y="263.869" width="237.913" height="46.565" rx="5.283" ry="5.283"/>
        <rect class="cls-1" x="499.848" y="310.434" width="15.652" height="83.739" rx="2.543" ry="2.543"/>
        <rect class="cls-1" x="664.979" y="310.434" width="15.652" height="83.739" rx="2.543" ry="2.543"/>
        <line class="cls-1" x1="215.892" y1="239.608" x2="215.892" y2="248.999"/>
        <line class="cls-1" x1="215.892" y1="268.956" x2="215.892" y2="278.347"/>
      </g>
    </g>
  </g>
</svg>