<?xml version="1.0" encoding="UTF-8"?>
<svg id="Camada_2" data-name="Camada 2" xmlns="http://www.w3.org/2000/svg" viewBox="0 0 48.315 47.835">
  <defs>
    <style>
      .cls-1 {
        fill: #282826;
      }
    </style>
  </defs>
  <g id="Camada_1-2" data-name="Camada 1">
    <g id="Camada_2-2" data-name="Camada 2">
      <g id="Camada_1-2" data-name="Camada 1-2">
        <g>
          <path class="cls-1" d="M22.926.058c19.349-1.302,31.748,19.593,21.971,36.269C34.572,53.937,7.115,50.643,1.117,31.18-3.603,15.862,7.203,1.117,22.925.059h0ZM23.971,1.105C8.946,1.44-1.928,15.107,1.914,29.86c5.082,19.515,32.352,23.152,42.236,5.545C52.878,19.857,41.888.706,23.972,1.105h0Z"/>
          <path class="cls-1" d="M31.54,20.545c.057.078,1.409.525,1.767.763,1.249.828,2.484,2.789,2.384,4.33.419.457,2.646-2.397,2.447,1.664-.177,3.616-2.225,7.229-4.98,9.491-.4.328-1.606.907-1.778,1.101-.149.168-.103.591-.473.834-.216.141-2.609.319-3.144.343-1.941.086-4.356.098-6.291,0-.557-.028-2.672-.182-2.884-.436-.126-.15-.105-.443-.209-.568-.202-.241-2.236-1.303-2.823-1.799-2.431-2.051-4.067-5.446-4.275-8.628-.067-1.024-.273-2.539,1.131-2.536.61,0,1.025.599,1.655.532-.167-1.698.341-3.256,1.662-4.354.414-.344,1.225-.648,1.49-.959.148-.173.147-1.04.299-1.439.851-2.231,2.539-1.945,3.687-3.111.529-.538,2.74-3.302,2.895-3.905.157-.614-.138-1.853.857-1.757.377.036,1.084.993,1.286,1.346.735,1.282,1.067,4.838,2.168,5.33.989.442,1.369.119,2.221,1.266.603.811.713,2.228.907,2.492h.001ZM25.4,12.561c-.308-.304-.298.139-.364.25-.315.529-.566.989-.959,1.476-.936,1.157-2.399,1.958-1.943,3.724.227.88,2.332,1.479.567,2.16-1.098-.332-1.844-1.414-1.833-2.554-3.609,1.071-2.528,4.126.663,5.006,3.04.838,6.497.424,8.659-2.033-.003-.845-.574-1.943-1.35-2.312-.881-.419-1.3-.08-2.013-1.125-.674-.988-1.158-4.325-1.427-4.59v-.002ZM30.739,21.899c-2.745,2.163-5,2.721-8.513,2.121-1.969-.337-3.224-1.113-4.726-2.368-1.528.63-2.539,2.388-2.171,4.035.152.681.768.742,1.355.91,4.17,1.198,12.814,1.179,16.951-.138.185-.059.803-.256.842-.417.016-2.274-1.469-3.611-3.443-4.396l-.199.01c-.034.073-.042.2-.097.243h0ZM36.909,26.685c-1.994.825-4.066,1.416-6.212,1.719-5.961.843-12.392.455-18.021-1.719-.254,3.496,1.679,7.189,4.449,9.237.382.283,2.224,1.529,2.531,1.654.291.118,2.499.251,3.037.275,2.379.106,4.764-.059,7.132-.211.763-.877,1.886-1.297,2.808-2.068,2.611-2.183,4.094-5.501,4.276-8.886h0Z"/>
        </g>
      </g>
    </g>
  </g>
</svg>