<?xml version="1.0" encoding="UTF-8"?>
<svg id="Camada_2" data-name="Camada 2" xmlns="http://www.w3.org/2000/svg" viewBox="0 0 48.454 47.911">
  <defs>
    <style>
      .cls-1 {
        fill: #282826;
      }
    </style>
  </defs>
  <g id="Camada_1-2" data-name="Camada 1">
    <g id="Camada_2-2" data-name="Camada 2">
      <g id="Camada_1-2" data-name="Camada 1-2">
        <g>
          <path class="cls-1" d="M22.825.051c17.305-1.101,30.179,15.705,24.101,32.121-6.837,18.463-32.009,21.382-42.862,5.02C-6.308,21.556,4.338,1.227,22.826.051h0ZM24.045,1.098C7.777,1.421-3.165,17.17,2.851,32.477c6.932,17.639,32.041,19.386,41.373,2.921C53.049,19.827,41.935.743,24.046,1.098h-.001Z"/>
          <path class="cls-1" d="M23.848,10.136c.402-.101.792-.037,1.013.332,3.526,7.196,13.413,16.198,7.731,24.633-4.501,6.683-14.922,5.585-17.884-1.926-1.772-4.491-.128-8.066,2.085-11.955,2.158-3.792,4.74-7.386,7.056-11.083h-.001ZM24.169,12.034c-2.149,3.457-4.685,6.887-6.629,10.454-1.708,3.133-2.993,5.94-1.906,9.585,2.185,7.327,12.351,8.334,16.21,1.755,2.291-3.905,1.098-7.322-.871-10.992-1.986-3.7-4.631-7.201-6.804-10.803h0Z"/>
          <path class="cls-1" d="M18.301,28.972c.054.087.19,1.601.323,2.029.361,1.163,1.61,2.665,2.679,3.249.601.328,2.442.553,2.237,1.373-.396,1.58-3.995-.835-4.628-1.51-.901-.961-2.157-3.583-1.769-4.872.159-.528.974-.566,1.158-.269h0Z"/>
        </g>
      </g>
    </g>
  </g>
</svg>