<?xml version="1.0" encoding="UTF-8"?>
<svg id="Camada_2" data-name="Camada 2" xmlns="http://www.w3.org/2000/svg" viewBox="0 0 48.44 47.926">
  <defs>
    <style>
      .cls-1 {
        fill: #282826;
      }
    </style>
  </defs>
  <g id="Camada_1-2" data-name="Camada 1">
    <g id="Camada_2-2" data-name="Camada 2">
      <g id="Camada_1-2" data-name="Camada 1-2">
        <g>
          <path class="cls-1" d="M22.834.06c17.389-1.203,30.173,15.892,24.053,32.248-6.575,17.572-30.07,21.18-41.697,6.39C-6.95,23.256,3.543,1.395,22.834.06h0ZM24.054,1.107C7.864,1.443-3.191,17.225,2.862,32.483c7.455,18.792,34.353,19.168,42.475.716C52.108,17.819,40.773.76,24.053,1.107h0Z"/>
          <path class="cls-1" d="M26.572,31.875c-.647-.65-.844-3.826-.739-4.754.281-2.479,2.977-4.892,5.292-5.519,2.42-.655,2.997-.723,3.52,1.764,1.068,5.082-1.932,9.308-7.332,8.724-.224-.024-.585-.059-.741-.215h0ZM32.111,22.677c-3.445.65-5.817,3.807-5.055,7.321l5.055-7.321ZM28.277,31.044c4.089-.26,6.222-4.064,5.053-7.846-.116-.089-1.664,2.075-1.809,2.286-.8,1.164-2.6,3.748-3.107,4.914-.094.217-.18.399-.137.646h0Z"/>
          <path class="cls-1" d="M22.824,10.147c.793-.157,1.999,1.219,2.457,1.834,2.063,2.767,2.512,7.314-.41,9.643-1.389,1.107-2.061,1.321-3.559.255-3.042-2.163-2.97-5.898-1.261-8.911.45-.793,1.877-2.644,2.773-2.821h0ZM22.347,20.931v-8.892c-1.909,1.691-2.935,4.807-1.712,7.205.14.274,1.455,1.979,1.712,1.688h0ZM23.567,20.931c3.273-1.782,2.425-6.762,0-8.892v8.892Z"/>
          <path class="cls-1" d="M15.676,24.448c.483-.098.977.106,1.432.241,4.621,1.369,6.312,7.547,3.026,11.03-4.7.665-7.293-3.081-6.601-7.473.136-.864,1.273-3.621,2.143-3.798ZM20.078,33.834c1.394-3.241-.187-7.436-3.833-8.02-.196.192.878,3.857,1.146,4.345.258.47.844.682,1.123,1.018.549.662.814,1.653,1.202,2.409.093.182-.092.329.363.248h0ZM17.177,31.681c-1.021-1.376-1.706-2.713-1.891-4.472-1.688,2.779-.054,7.453,3.573,7.32-.476-.633-.683-1.73-1.067-2.332-.195-.306-.501-.361-.616-.516h0Z"/>
        </g>
      </g>
    </g>
  </g>
</svg>