<?xml version="1.0" encoding="UTF-8"?>
<svg id="Camada_2" data-name="Camada 2" xmlns="http://www.w3.org/2000/svg" viewBox="0 0 48.368 47.907">
  <defs>
    <style>
      .cls-1 {
        fill: #282826;
      }
    </style>
  </defs>
  <g id="Camada_1-2" data-name="Camada 1">
    <g id="Camada_2-2" data-name="Camada 2">
      <g id="Camada_1-2" data-name="Camada 1-2">
        <g>
          <path class="cls-1" d="M21.434.107c17.588-1.559,31.171,14.18,25.712,31.291-6.793,21.291-37.108,22.223-45.464,1.433C-4.138,18.35,5.797,1.492,21.434.107ZM22.654,1.152C4.58,2.332-5.045,22.594,5.458,37.425c9.215,13.013,29.469,12.434,38.053-.944C53.842,20.382,41.602-.085,22.654,1.152Z"/>
          <path class="cls-1" d="M13.796,29.346l-.216,1.526c-.496.351-.996.19-1.526.045,0,.507.445.324.48,1.001.014.279-.093.481-.132.741l23.713.002.173-1.744-1.283.314c-.651-.125-.405-1.164-.281-1.621.059-.216-.145-.298.262-.272.12.008,1.461.423,1.606.489,1.098.5,1.059,1.828.744,2.83.689-.026,1.555-.151,1.576.777l-.254.461-28.597.14c-1.525-.195-.249-1.919,1.119-1.378-.222-.897-.616-1.344-.077-2.257.562-.952,1.014-.533,1.699-.702.148-.037.308-.67.802-.544-.61-1.516.989-3.3,2.294-1.998,1.264,1.262-.696,2.672-2.102,2.188v.002Z"/>
          <path class="cls-1" d="M23.869,13.514c2.469-.36,2.237,3.674-.002,3.246-1.858-.356-1.799-2.983.002-3.246Z"/>
          <path class="cls-1" d="M32.568,24.867c.293.416.308,1.025-.236,1.151-.34.079-.507-.262-.691-.281-.68-.072-1.062.27-1.844-.398-1.755-1.497,1.071-3.86,2.113-1.813.322.633.173.652.658,1.34h0Z"/>
          <path class="cls-1" d="M22.34,18.014c-.258.836-.22,2.343-.86,2.887-1.342,1.138-3.168-.361-2.199-1.851.727-1.119,1.338-.453,2.038-.602.296-.063.584-.573,1.022-.433h0Z"/>
          <path class="cls-1" d="M16.201,24.603c.237-.426-.194-1.461.902-1.807,1.458-.46,2.408,1.308,1.301,2.351-.723.682-1.053.141-1.536.228-.28.05-1.181,1.452-1.476.358-.225-.833.69-.915.809-1.13Z"/>
          <path class="cls-1" d="M27.171,18.399c2.794-.83,2.866,3.619.255,2.812-1.325-.41-1.398-2.472-.255-2.812Z"/>
          <path class="cls-1" d="M23.688,28.509c2.569-.56,2.277,3.711-.258,2.624-1.12-.481-.948-2.361.258-2.624Z"/>
          <path class="cls-1" d="M21.248,23.797c1.645-.349,2.538,2.167.928,2.68-2.249.718-2.496-2.347-.928-2.68Z"/>
          <path class="cls-1" d="M26.309,23.796c1.804-.291,2.215,2.41.61,2.731-2.028.405-2.496-2.426-.61-2.731Z"/>
          <path class="cls-1" d="M18.633,28.501c1.596-.29,2.226,2.356.619,2.725-2.2.506-2.342-2.412-.619-2.725Z"/>
          <path class="cls-1" d="M30.131,28.878c1.229,1.341-.921,3.359-2.113,1.853-1.163-1.469.989-3.079,2.113-1.853Z"/>
          <path class="cls-1" d="M33.104,26.94c2.309-.507,2.551,3.119-.002,2.544-1.194-.269-1.167-2.287.002-2.544Z"/>
          <path class="cls-1" d="M23.864,19.613c1.813-.37,2.165,2.281.614,2.558-1.487.265-2.332-2.207-.614-2.558Z"/>
        </g>
      </g>
    </g>
  </g>
</svg>