<?xml version="1.0" encoding="UTF-8"?>
<svg id="Camada_2" data-name="Camada 2" xmlns="http://www.w3.org/2000/svg" viewBox="0 0 401.859 88.449">
  <defs>
    <style>
      .cls-1, .cls-2 {
        isolation: isolate;
      }

      .cls-2 {
        font-family: Calibri, Calibri;
        font-size: 26.677px;
      }

      .cls-2, .cls-3 {
        fill: #21396e;
      }
    </style>
  </defs>
  <g id="Camada_1-2" data-name="Camada 1">
    <g id="Camada_2-2" data-name="Camada 2">
      <g id="Camada_1-2" data-name="Camada 1-2">
        <path class="cls-3" d="M97.83,27.563c.042,2.918-.75,5.752-2.376,8.212-1.667,2.501-3.876,3.834-6.669,3.834h-23.343v11.588h-7.377V15.392h30.72c2.793,0,5.002,1.25,6.669,3.834,1.584,2.501,2.418,5.378,2.376,8.337M90.369,27.563c0-2.501-.5-3.835-1.584-3.835h-23.343v7.503h23.343c1.084,0,1.584-1.25,1.584-3.668"/>
        <path class="cls-3" d="M145.558,51.197h-10.129l-15.84-20.008h19.05c1.375,0,2.084-1.25,2.084-3.668,0-2.501-.709-3.752-2.084-3.752h-22.926v27.428h-7.461V15.391h30.762c2.834,0,5.085,1.251,6.752,3.752,1.543,2.292,2.293,5.002,2.293,8.336,0,3.21-.75,5.961-2.293,8.254-1.667,2.501-3.876,3.668-6.752,3.668h-2.793l9.337,11.796h0Z"/>
        <path class="cls-3" d="M197.912,39.86c.083,3.001-1.042,5.919-3.043,8.128-1.876,2.043-4.502,3.21-7.295,3.21h-18.674c-2.793,0-5.46-1.167-7.378-3.21-2.001-2.209-3.001-4.877-3.001-8.128v-13.13c0-3.251.959-5.961,3.001-8.045,1.876-2.084,4.544-3.293,7.378-3.251h18.674c2.793,0,5.461,1.167,7.295,3.251,2.001,2.084,3.043,4.794,3.043,8.045v13.13ZM190.492,39.86v-13.13c0-1.959-.959-3.001-2.918-3.001h-18.674c-2.001,0-3.001,1.042-3.001,3.001v13.13c0,1.959.959,3.001,3.001,3.001h18.674c1.918,0,2.918-1.042,2.918-3.001"/>
        <polygon class="cls-3" points="242.263 23.728 215.794 23.728 215.794 29.147 240.596 29.147 240.596 37.483 215.794 37.483 215.794 51.197 208.333 51.197 208.333 15.391 242.263 15.391 242.263 23.728"/>
        <rect class="cls-3" x="251.766" y="15.392" width="7.378" height="35.764"/>
        <polygon class="cls-3" points="301.453 51.197 269.607 51.197 269.607 15.391 276.985 15.391 276.985 42.86 301.453 42.86 301.453 51.197"/>
        <polygon class="cls-3" points="343.678 51.197 311.874 51.197 311.874 15.391 319.21 15.391 319.21 42.86 343.678 42.86 343.678 51.197"/>
        <path class="cls-3" d="M392.03,40.151c.083,2.751-.792,5.502-2.418,7.711-1.75,2.21-3.876,3.335-6.544,3.335h-27.427v-8.337h27.427c1.042,0,1.542-.917,1.542-2.709s-.5-2.626-1.542-2.626h-19.924c-2.626,0-4.794-1.125-6.545-3.335-1.667-2.084-2.501-4.668-2.501-7.628-.083-2.834.834-5.627,2.543-7.836,1.667-2.168,3.835-3.251,6.461-3.251h27.386v8.336h-27.428c-1.042,0-1.542.959-1.542,2.793,0,1.751.5,2.626,1.542,2.626h20.008c2.626,0,4.794,1.042,6.544,3.251,1.626,2.168,2.46,4.877,2.418,7.67"/>
        <path class="cls-3" d="M13.672,38.526c-.834-1.792-1.584-3.668-2.376-5.502l.083-.334L21.675,5.971,23.968.219,6.127,20.227l-.291.25L0,6.93l3.251-.959L22.134.219c.917-.292,1.917-.292,2.834,0l18.591,6.044,4.085,1.542-13.756,30.346-10.212,23.342L23.884.219l-10.212,38.307h0Z"/>
        <g class="cls-1">
          <text class="cls-2" transform="translate(158.521 80.112)"><tspan x="0" y="0">Embalando o Mundo!</tspan></text>
        </g>
        <path class="cls-3" d="M397.441,15.391c.742,0,1.467.19,2.174.571s1.258.926,1.652,1.635.592,1.448.592,2.218c0,.762-.194,1.494-.583,2.197s-.934,1.249-1.635,1.638-1.435.583-2.2.583-1.499-.194-2.2-.583-1.247-.935-1.638-1.638-.586-1.436-.586-2.197c0-.77.198-1.509.595-2.218s.948-1.254,1.655-1.635,1.432-.571,2.174-.571ZM397.441,16.124c-.621,0-1.226.159-1.813.478s-1.048.773-1.38,1.365-.498,1.208-.498,1.849c0,.637.163,1.247.489,1.831s.782,1.039,1.368,1.365,1.197.489,1.834.489,1.248-.163,1.834-.489,1.041-.781,1.365-1.365.486-1.194.486-1.831c0-.641-.165-1.257-.495-1.849s-.79-1.047-1.38-1.365-1.193-.478-1.811-.478h.001ZM395.502,22.259v-4.758h1.635c.559,0,.963.044,1.213.132s.449.241.598.46.223.451.223.697c0,.348-.124.65-.372.908s-.577.402-.987.434c.168.07.303.154.404.252.191.188.426.502.703.943l.58.932h-.938l-.422-.75c-.332-.59-.6-.959-.803-1.107-.141-.109-.346-.164-.615-.164h-.451v2.021h-.768ZM396.269,19.581h.932c.445,0,.749-.066.911-.199s.243-.309.243-.527c0-.141-.039-.267-.117-.378s-.187-.194-.325-.249-.396-.082-.771-.082h-.873v1.436h0Z"/>
      </g>
    </g>
  </g>
</svg>