<?xml version="1.0" encoding="UTF-8"?>
<svg id="Camada_2" data-name="Camada 2" xmlns="http://www.w3.org/2000/svg" viewBox="0 0 1509.42 380.23">
  <defs>
    <style>
      .cls-1 {
        fill: #29aec4;
      }

      .cls-2 {
        fill: #1d1d1b;
      }
    </style>
  </defs>
  <g id="Camada_6" data-name="Camada 6">
    <g>
      <path class="cls-2" d="M220.97,159.72c1.64,3.44,1.79,6.95,.45,10.54-1.35,3.44-3.74,5.98-7.18,7.63-20.94,9.42-48.46,21.84-82.55,37.24-42.33,19.15-72.39,32.68-90.18,40.6,20.94,26.92,45.69,40.38,74.25,40.38,18.99,0,36.19-5.61,51.6-16.83,14.81-10.77,25.2-24.82,31.18-42.17,2.24-6.28,6.73-9.42,13.46-9.42,4.78,0,8.6,1.95,11.44,5.83,2.69,3.89,3.21,8.08,1.57,12.56-7.93,22.88-21.76,41.43-41.5,55.63-20.34,14.51-42.92,21.76-67.75,21.76-32.01,0-59.3-11.29-81.88-33.87C11.29,267.03,0,239.74,0,207.73s11.29-59.3,33.87-81.88,49.88-33.87,81.88-33.87c23.03,0,44.12,6.28,63.26,18.84,18.69,12.26,32.68,28.57,41.95,48.9Zm-105.21-39.26c-24.23,0-44.94,8.6-62.14,25.8-17.05,17.2-25.57,37.91-25.57,62.14,0,4.34,.75,11.59,2.24,21.76l158.15-71.56c-21.24-25.42-45.47-38.14-72.68-38.14Z"/>
      <path class="cls-2" d="M271.45,0c3.74,0,6.95,1.27,9.65,3.81,2.69,2.69,4.04,5.98,4.04,9.87v117.33c29.16-26.02,58.4-39.03,87.71-39.03,32,0,59.3,11.29,81.88,33.87,22.58,22.58,33.87,49.88,33.87,81.88s-11.29,59.3-33.87,81.88c-22.58,22.58-49.88,33.87-81.88,33.87s-59.22-11.22-81.66-33.65c-22.58-22.58-33.95-49.73-34.1-81.43V13.68c0-3.89,1.35-7.18,4.04-9.87,2.69-2.54,5.91-3.81,9.65-3.81h.67Zm101.4,120.47c-24.23,0-44.94,8.6-62.14,25.8-17.05,17.2-25.57,37.91-25.57,62.14s8.52,44.72,25.57,61.92c17.2,17.2,37.91,25.8,62.14,25.8s45.01-8.6,61.92-25.8c17.2-17.2,25.8-37.83,25.8-61.92s-8.6-44.94-25.8-62.14c-16.9-17.2-37.54-25.8-61.92-25.8Z"/>
      <path class="cls-2" d="M531.91,0c3.74,0,6.95,1.27,9.65,3.81,2.69,2.69,4.04,5.98,4.04,9.87v117.33c29.16-26.02,58.4-39.03,87.71-39.03,32,0,59.3,11.29,81.88,33.87,22.58,22.58,33.87,49.88,33.87,81.88s-11.29,59.3-33.87,81.88c-22.58,22.58-49.88,33.87-81.88,33.87s-59.22-11.22-81.66-33.65c-22.58-22.58-33.95-49.73-34.1-81.43V13.68c0-3.89,1.35-7.18,4.04-9.87,2.69-2.54,5.91-3.81,9.65-3.81h.67Zm101.4,120.47c-24.23,0-44.94,8.6-62.14,25.8-17.05,17.2-25.57,37.91-25.57,62.14s8.52,44.72,25.57,61.92c17.2,17.2,37.91,25.8,62.14,25.8s45.01-8.6,61.92-25.8c17.2-17.2,25.8-37.83,25.8-61.92s-8.6-44.94-25.8-62.14c-16.9-17.2-37.54-25.8-61.92-25.8Z"/>
      <path class="cls-2" d="M975.65,125.85c22.58,22.58,33.87,49.88,33.87,81.88v102.07c0,3.74-1.35,6.96-4.04,9.65-2.69,2.69-5.91,4.04-9.65,4.04h-.67c-3.74,0-6.95-1.35-9.65-4.04s-4.04-5.91-4.04-9.65v-25.35c-29.31,26.02-58.55,39.03-87.71,39.03-32.01,0-59.3-11.29-81.88-33.87-22.58-22.58-33.87-49.88-33.87-81.88s11.29-59.3,33.87-81.88,49.88-33.87,81.88-33.87,59.3,11.29,81.88,33.87Zm-144.02,19.97c-17.05,17.2-25.57,37.84-25.57,61.92s8.52,44.94,25.57,62.14c17.2,17.05,37.91,25.57,62.14,25.57s44.87-8.52,61.92-25.57,25.8-37.91,25.8-62.14-8.6-44.72-25.8-61.92c-16.9-17.2-37.54-25.8-61.92-25.8s-44.94,8.6-62.14,25.8Z"/>
    </g>
  </g>
  <g id="Camada_2-2" data-name="Camada 2">
    <g>
      <path class="cls-1" d="M1242.95,80.82c-10.14,0-18.8,3.55-25.96,10.65-7.1,7.17-10.65,15.82-10.65,25.96s3.55,18.7,10.65,25.86c7.17,7.17,15.82,10.75,25.96,10.75s18.76-3.58,25.86-10.75c7.17-7.17,10.75-15.79,10.75-25.86s-3.58-18.8-10.75-25.96c-7.1-7.1-15.72-10.65-25.86-10.65Z"/>
      <path class="cls-1" d="M1404.74,81.02c-10.14,0-18.8,3.58-25.96,10.75-7.1,7.17-10.65,15.79-10.65,25.86s3.55,18.8,10.65,25.96c7.17,7.1,15.82,10.65,25.96,10.65s18.76-3.55,25.86-10.65,10.75-15.82,10.75-25.96-3.58-18.69-10.75-25.86c-7.1-7.17-15.72-10.75-25.86-10.75Z"/>
      <path class="cls-1" d="M1491.53,11.39h-333.07c-9.88,0-17.89,8.01-17.89,17.89V362.35c0,9.88,8.01,17.89,17.89,17.89h333.07c9.88,0,17.89-8.01,17.89-17.89V29.27c0-9.88-8.01-17.89-17.89-17.89Zm-228.41,240.84c0,3.11-1.25,5.58-3.75,7.4-2.57,1.89-5.34,2.37-8.32,1.42-3.58-1.22-7.3-1.83-11.16-1.83-10.14,0-18.8,3.58-25.96,10.75-7.1,7.17-10.65,15.82-10.65,25.96s3.55,18.7,10.65,25.86c7.17,7.17,15.82,10.75,25.96,10.75,3.85,0,7.57-.57,11.16-1.72,2.97-.95,5.75-.51,8.32,1.32,2.5,1.83,3.75,4.33,3.75,7.5,0,4.46-2.17,7.4-6.49,8.82-5.41,1.69-10.99,2.54-16.73,2.54-15.28,0-28.33-5.41-39.15-16.23-10.82-10.82-16.23-23.87-16.23-39.15s5.41-28.33,16.23-39.15c10.82-10.82,23.87-16.23,39.15-16.23,5.75,0,11.32,.88,16.73,2.64,4.33,1.35,6.49,4.29,6.49,8.82v.51Zm18.96-95.45c-10.82,10.82-23.87,16.23-39.15,16.23-14,0-26.2-4.63-36.61-13.89v46.35c0,2.5-.91,4.67-2.74,6.49s-3.99,2.74-6.49,2.74h-.3c-2.5,0-4.67-.91-6.49-2.74s-2.74-3.99-2.74-6.49V117.43c.07-15.28,5.51-28.3,16.33-39.05,10.75-10.75,23.76-16.12,39.04-16.12s28.33,5.41,39.15,16.23c10.82,10.82,16.23,23.87,16.23,39.15s-5.41,28.33-16.23,39.15Zm162.26,180.08c0,2.57-.91,4.73-2.74,6.49-1.83,1.83-3.99,2.74-6.49,2.74h-.3c-2.5,0-4.67-.91-6.49-2.74-1.83-1.76-2.74-3.92-2.74-6.49v-5.17c-.07-10.07-3.65-18.66-10.75-25.76-7.17-7.1-15.79-10.65-25.86-10.65h-11.36v41.58c0,2.57-.91,4.73-2.74,6.49-1.83,1.83-3.99,2.74-6.49,2.74h-.3c-2.5,0-4.67-.91-6.49-2.74-1.83-1.76-2.74-3.92-2.74-6.49V202.99c0-2.57,.91-4.77,2.74-6.59,1.83-1.76,3.99-2.64,6.49-2.64h.3c2.5,0,4.67,.88,6.49,2.64,1.83,1.83,2.74,4.02,2.74,6.59v73.32h6.9c9.4,0,17.61-3.14,24.64-9.43,6.9-6.29,10.82-14.03,11.76-23.22,.27-2.37,1.28-4.33,3.04-5.88,1.76-1.62,3.82-2.43,6.19-2.43h.3c2.7,0,4.97,1.01,6.79,3.04,1.83,2.03,2.6,4.43,2.33,7.2-1.56,16.09-8.86,29-21.91,38.74,8.11,4.94,14.54,11.53,19.27,19.78,4.93,8.52,7.4,17.71,7.4,27.58v5.17Zm15.76-173.08c0,2.57-.91,4.73-2.74,6.49-1.83,1.83-3.99,2.74-6.49,2.74h-.3c-2.5,0-4.67-.91-6.49-2.74-1.83-1.76-2.74-3.92-2.74-6.49v-4.67c-10.48,9.26-22.68,13.89-36.61,13.89-15.28,0-28.33-5.41-39.15-16.23-10.82-10.82-16.23-23.87-16.23-39.15s5.41-28.33,16.23-39.15,23.87-16.23,39.15-16.23,28.33,5.41,39.15,16.23c10.82,10.82,16.23,23.87,16.23,39.15v46.14Z"/>
    </g>
  </g>
</svg>